<svg width="20" height="20" viewBox="0 0 20 20" fill="none" xmlns="http://www.w3.org/2000/svg">
<path d="M12 6L14 6L14 3.09C16.39 4.47 18 7.05 18 10C18 13.72 15.44 16.85 12 17.74L12 19.8C16.56 18.87 20 14.84 20 10C20 6.73 18.42 3.82 15.99 2L18 2L18 -8.74228e-08L12 -3.49691e-07L12 6Z" fill="#757575"/>
<path d="M8 14L6 14L6 16.91C3.61 15.53 2 12.95 2 10C2 6.28 4.56 3.15 8 2.26L8 0.200001C3.44 1.13 -2.16809e-07 5.16 -4.28372e-07 10C-5.71308e-07 13.27 1.58 16.18 4.01 18L2 18L2 20L8 20L8 14Z" fill="#757575"/>
</svg>
