<?xml version="1.0"?>
<svg xmlns="http://www.w3.org/2000/svg" xmlns:xlink="http://www.w3.org/1999/xlink" version="1.1" id="Capa_1" x="0px" y="0px" width="512px" height="512px" viewBox="0 0 612 612" style="enable-background:new 0 0 612 612;" xml:space="preserve"><g><g>
	<g>
		<path d="M604.267,194.727c4.257,0,7.733-3.644,7.733-7.733v-40.169c0-4.256-3.283-7.733-7.733-7.733H7.733    c-4.256,0-7.733,3.644-7.733,7.733v40.169c0,4.256,3.283,7.733,7.733,7.733H604.267z" data-original="#000000" class="active-path" data-old_color="#000000" fill="#FFFFFF"/>
		<path d="M0,326.084c0,4.256,3.283,7.733,7.733,7.733h596.533c4.256,0,7.733-3.645,7.733-7.733v-40.169    c0-4.284-3.283-7.733-7.733-7.733H7.733c-4.256,0-7.733,3.645-7.733,7.733V326.084z" data-original="#000000" class="active-path" data-old_color="#000000" fill="#FFFFFF"/>
		<path d="M0,465.175c0,4.256,3.283,7.733,7.733,7.733h596.533c4.256,0,7.733-3.645,7.733-7.733v-40.169    c0-4.256-3.283-7.732-7.733-7.732H7.733c-4.256,0-7.733,3.644-7.733,7.732V465.175z" data-original="#000000" class="active-path" data-old_color="#000000" fill="#FFFFFF"/>
	</g>
</g></g> </svg>
