<svg width="24" height="24" viewBox="0 0 24 24" fill="none" xmlns="http://www.w3.org/2000/svg">
<g clip-path="url(#clip0)">
<path d="M14 8L16 8L16 5.09C18.39 6.47 20 9.05 20 12C20 15.72 17.44 18.85 14 19.74L14 21.8C18.56 20.87 22 16.84 22 12C22 8.73 20.42 5.82 17.99 4L20 4L20 2L14 2L14 8Z" fill="#757575"/>
<path d="M10 16L8 16L8 18.91C5.61 17.53 4 14.95 4 12C4 8.28001 6.56 5.15001 10 4.26001L10 2.20001C5.44 3.13001 2 7.16001 2 12C2 15.27 3.58 18.18 6.01 20L4 20L4 22L10 22L10 16Z" fill="#757575"/>
</g>
<defs>
<clipPath id="clip0">
<rect width="24" height="24" fill="white"/>
</clipPath>
</defs>
</svg>
