<svg width="24" height="24" viewBox="0 0 24 24" fill="none" xmlns="http://www.w3.org/2000/svg">
<g id="icon/action/pan_tool_24px">
<path id="icon/action/pan_tool_24px_2" fill-rule="evenodd" clip-rule="evenodd" d="M0.0046306 11.8199L0.00463031 18.3699C0.00463021 20.5799 1.79463 22.3699 4.00463 22.3699L17.8546 22.3699C19.2346 22.3699 20.3546 21.2499 20.3546 19.8699C20.3546 19.6999 20.3346 19.5299 20.3046 19.3699L20.5846 19.3699C21.9646 19.3699 23.0846 18.2499 23.0846 16.8699C23.0846 16.5399 23.0246 16.2199 22.9046 15.9299C23.5646 15.4799 23.9946 14.7299 23.9946 13.8699C23.9946 12.5499 22.9646 11.4699 21.6646 11.3799C21.6946 11.2099 21.7146 11.0399 21.7146 10.8699C21.7146 9.48988 20.5946 8.36988 19.2146 8.36988L9.66463 8.36988L10.9446 5.95988C11.3346 5.22988 11.2246 4.31988 10.6746 3.69988L8.84463 1.62988L1.23463 8.92988C0.45463 9.67988 0.00463064 10.7399 0.0046306 11.8199ZM2.62483 10.3699L8.72483 4.50988L9.17483 5.01988L6.34483 10.3699L19.2148 10.3699C19.4848 10.3699 19.7148 10.5899 19.7148 10.8699C19.7148 11.1499 19.4948 11.3699 19.2148 11.3699L12.0048 11.3699L12.0048 13.3699L21.4948 13.3699C21.7748 13.3699 21.9948 13.5899 21.9948 13.8699C21.9948 14.1499 21.7748 14.3699 21.4948 14.3699L12.0048 14.3699L12.0048 16.3699L20.5848 16.3699C20.8648 16.3699 21.0848 16.5899 21.0848 16.8699C21.0848 17.1499 20.8648 17.3699 20.5848 17.3699L12.0048 17.3699L12.0048 19.3699L17.8548 19.3699C18.1348 19.3699 18.3548 19.5899 18.3548 19.8699C18.3548 20.1499 18.1348 20.3699 17.8548 20.3699L4.00483 20.3699C2.90483 20.3699 2.00483 19.4699 2.00483 18.3699L2.00483 11.8099C2.00483 11.2699 2.23483 10.7499 2.62483 10.3699Z" fill="black" fill-opacity="0.54"/>
</g>
</svg>
