<svg xmlns="http://www.w3.org/2000/svg" viewBox="0 0 171.93 174.9"><defs><style>.cls-1{fill:#fff;}</style></defs><g id="Layer_2" data-name="Layer 2"><g id="Capa_1" data-name="Capa 1"><path d="M116.1,106.13a51.28,51.28,0,0,0,13.06-16.77,46.31,46.31,0,0,0,4.77-20.59,24.45,24.45,0,0,0-6.68-17.19Q120.56,44.37,107.19,35q-8.7-6.15-12.74-9.34a13.88,13.88,0,0,0,5.73-11.46A13.75,13.75,0,0,0,96.05,4.14a14.35,14.35,0,0,0-20.17,0,13.72,13.72,0,0,0-4.14,10.08,13.88,13.88,0,0,0,5.73,11.46Q73.65,28.86,64.74,35,51.36,44.58,44.68,51.68A24.05,24.05,0,0,0,38,68.77a46.31,46.31,0,0,0,4.77,20.59,51.25,51.25,0,0,0,13,16.77L45.21,136.05q6.59,2.13,12.84,3.61a99.71,99.71,0,0,0,12.21,2.13,26.28,26.28,0,0,1-8.92,5.51,29.79,29.79,0,0,1-10.61,1.91A112,112,0,0,1,38,148.15a114.28,114.28,0,0,0-12.73-1.06,56.56,56.56,0,0,0-11.89,1.28A96.46,96.46,0,0,0,0,152.4l9.55,22.5A60.54,60.54,0,0,1,22,171,64.52,64.52,0,0,1,35,169.59a114.41,114.41,0,0,1,12.74,1.06,111.83,111.83,0,0,0,12.74,1.06,28.74,28.74,0,0,0,14.64-3.92A29.07,29.07,0,0,0,86,156.85a29.17,29.17,0,0,0,10.83,10.94,28.81,28.81,0,0,0,14.64,3.92,112,112,0,0,0,12.74-1.06,114.23,114.23,0,0,1,12.74-1.06A65.93,65.93,0,0,1,150.06,171a55.79,55.79,0,0,1,12.32,3.93l9.55-22.5a61.27,61.27,0,0,0-25.26-5.31,114.41,114.41,0,0,0-12.74,1.06,111.87,111.87,0,0,1-12.73,1.06,30.14,30.14,0,0,1-10.51-1.91,26.06,26.06,0,0,1-9-5.51,95.41,95.41,0,0,0,12.42-2.23q6.47-1.6,12.63-3.72L116.1,106.13Z"/><path class="cls-1" d="M91.27,150.06a21.19,21.19,0,0,1-1.49-7.21l2.34-.22a38,38,0,0,0,7.21,7l-8.06.42Z"/><path class="cls-1" d="M72.59,149.64a37.79,37.79,0,0,0,7.22-7l2.33.22a21.11,21.11,0,0,1-1.48,7.21l-8.07-.42Z"/><path class="cls-1" d="M63,101.88A129.9,129.9,0,0,1,86,100a127.67,127.67,0,0,1,22.93,1.91L107,103.37l2.33,6.36a129.65,129.65,0,0,0-46.7,0L65,103.37,63,101.88Z"/><path class="cls-1" d="M116.74,131a113.55,113.55,0,0,0-61.55,0l3-8.7q6.8-1.49,14-2.34A119.43,119.43,0,0,1,86,119.08a127.65,127.65,0,0,1,27.6,3.18l3.18,8.7Z"/><path class="cls-1" d="M89.78,65h11.47c2.54,0,3.82,1.27,3.82,3.82s-1.28,3.82-3.82,3.82H89.78V84.05q0,3.83-3.82,3.82c-2.54,0-3.82-1.27-3.82-3.82V72.59H70.68c-2.54,0-3.82-1.28-3.82-3.82S68.14,65,70.68,65H82.14V53.48c0-2.54,1.28-3.81,3.82-3.81s3.82,1.27,3.82,3.81V65Z"/></g></g></svg>