<svg xmlns="http://www.w3.org/2000/svg" viewBox="0 0 167.68 174.05"><defs><style>.cls-1{fill:#fff;}</style></defs><g id="Layer_2" data-name="Layer 2"><g id="Capa_1" data-name="Capa 1"><path d="M140.72,125.23q.65-2.33,7.64-8.7a96.32,96.32,0,0,0,14.12-15,26.82,26.82,0,0,0,5.2-16.24,33.84,33.84,0,0,0-2.76-13.59,35.45,35.45,0,0,0-18.68-18.68,33.75,33.75,0,0,0-13.58-2.76,45.87,45.87,0,0,0-15.92,3,51.12,51.12,0,0,0-14.22,7.85,30.64,30.64,0,0,0,.85-3.5,20.15,20.15,0,0,0,.42-3.5,19,19,0,0,0-4.56-12.64A20.17,20.17,0,0,0,87.66,34.6V20h8.49c2.55,0,3.82-1.28,3.82-3.82s-1.27-3.82-3.82-3.82H87.66V3.82Q87.66,0,83.84,0T80,3.82v8.49H71.53q-3.82,0-3.82,3.82C67.71,18.67,69,20,71.53,20H80V34.6a20.17,20.17,0,0,0-11.57,6.89,19,19,0,0,0-4.56,12.64,20.15,20.15,0,0,0,.42,3.5,30.64,30.64,0,0,0,.85,3.5,47.8,47.8,0,0,0-14.11-7.85,46.76,46.76,0,0,0-16-3,33.45,33.45,0,0,0-13.37,2.76A36.92,36.92,0,0,0,10.4,60.6,34.45,34.45,0,0,0,2.76,71.85,34,34,0,0,0,0,85.33a26.52,26.52,0,0,0,5.3,16.24,106.33,106.33,0,0,0,14,15q7,6.38,7.64,8.7l4.24,17-8.06,21.86a167.65,167.65,0,0,0,29.71,7.43,194.61,194.61,0,0,0,31,2.55,195.78,195.78,0,0,0,31-2.55,167.87,167.87,0,0,0,29.71-7.43l-8.06-21.86,4.24-17Z"/><path class="cls-1" d="M128.62,142.85a212.48,212.48,0,0,0-22.49-3.93,180.71,180.71,0,0,0-44.58,0,213.12,213.12,0,0,0-22.5,3.93l-1.7-7.43q11.48-2.55,23.46-4a187.5,187.5,0,0,1,23-1.49,182.44,182.44,0,0,1,22.81,1.49q11.79,1.49,23.67,4l-1.7,7.43Z"/><path class="cls-1" d="M132.66,159.62a208.24,208.24,0,0,0-24.62-5,173.22,173.22,0,0,0-24.2-1.8,174,174,0,0,0-24.09,1.8,206.45,206.45,0,0,0-24.73,5L33.11,159l2.76-7.43q12.32-3,24.41-4.67a169.73,169.73,0,0,1,23.56-1.7,173,173,0,0,1,23.56,1.7,239.24,239.24,0,0,1,24.41,4.67l2.76,7.43-1.91.64Z"/><path class="cls-1" d="M80,118a167.92,167.92,0,0,0-22.18,1.6q-12,1.59-23.46,4.14a9.22,9.22,0,0,0-2.54-5.21Q29.5,115.9,24.41,111A105.21,105.21,0,0,1,12,97.85,20.25,20.25,0,0,1,7.64,85.33,26.39,26.39,0,0,1,15.7,66,26.39,26.39,0,0,1,35,58a38.59,38.59,0,0,1,17.3,4A45.21,45.21,0,0,1,66.75,73.34a54.37,54.37,0,0,1,9.76,16.87A58,58,0,0,1,80,110.38V118Z"/><path class="cls-1" d="M87.66,110.37a58.23,58.23,0,0,1,3.5-20.16,54.59,54.59,0,0,1,9.77-16.87A45.21,45.21,0,0,1,115.36,62a38.56,38.56,0,0,1,17.3-4A27.54,27.54,0,0,1,160,85.33a20.27,20.27,0,0,1-4.35,12.52A105.21,105.21,0,0,1,143.27,111c-3.25,3.11-5.7,5.59-7.32,7.43a9.41,9.41,0,0,0-2.66,5.31q-11.46-2.55-23.45-4.14A168,168,0,0,0,87.66,118v-7.64Z"/><path class="cls-1" d="M83.84,88.09a97.61,97.61,0,0,0-5.1-11.46Q75.14,69,73.33,64.1a28.6,28.6,0,0,1-1.8-10,12.3,12.3,0,0,1,21-8.7,11.82,11.82,0,0,1,3.61,8.7,30.46,30.46,0,0,1-1.8,10.19,114.47,114.47,0,0,1-5.42,12.31,98.87,98.87,0,0,0-5.09,11.46Z"/><path d="M83.84,69.41l.85-1.91Q88.5,59,88.51,53.91a4.15,4.15,0,0,0-1.38-3.18,4.9,4.9,0,0,0-6.58,0,4.15,4.15,0,0,0-1.38,3.18Q79.17,59,83,67.5l.85,1.91Z"/><path d="M72.38,110.58a52.48,52.48,0,0,0-2.87-17.5,46.57,46.57,0,0,0-8.06-14.44,37,37,0,0,0-12-9.65A31.71,31.71,0,0,0,35,65.59a19,19,0,0,0-13.9,5.84,19,19,0,0,0-5.84,13.9q0,4.67,3.82,9.34a129.55,129.55,0,0,0,11,11.46c4.67,4.1,7.57,7,8.7,8.7q8.07-1.48,16.88-2.65t16.66-1.6Z"/><path d="M95.3,110.58q7.85.44,16.66,1.6t16.87,2.65c1.14-1.69,4-4.6,8.71-8.7a105.13,105.13,0,0,0,11-11.35q3.83-4.78,3.82-9.45a19.92,19.92,0,0,0-19.73-19.74A31.79,31.79,0,0,0,118.22,69a36.94,36.94,0,0,0-12,9.65,46.4,46.4,0,0,0-8.07,14.44,52.74,52.74,0,0,0-2.86,17.5Z"/></g></g></svg>