<svg xmlns="http://www.w3.org/2000/svg" viewBox="0 0 173.84 174.05"><defs><style>.cls-1{fill:#fff;}</style></defs><g id="Layer_2" data-name="Layer 2"><g id="Capa_1" data-name="Capa 1"><path d="M48.4,174.05H172.56q1.27-14.43,1.28-23.14a190,190,0,0,0-6.48-50,149.07,149.07,0,0,0-18.25-42.14q-11.78-18.24-27.17-28.65a61.66,61.66,0,0,0-32.79-11A34.37,34.37,0,0,0,83.84,8a30.23,30.23,0,0,0-8.27-8,32.65,32.65,0,0,0-7.65,9.13A35.26,35.26,0,0,0,63.68,21,63,63,0,0,0,49.25,7.22Q41.39,1.91,34.39,1.06a33.49,33.49,0,0,0-.22,4.67A76,76,0,0,0,38,30.35q-1.28,1.27-3.5,3.82a68.55,68.55,0,0,0-4.78,6.26,43.75,43.75,0,0,0-4.25,7.75,19.74,19.74,0,0,0-1.7,7.64A23,23,0,0,1,21,65.69q-2.75,5.63-8.27,15.39Q6.37,91.91,3.19,98.7A29.32,29.32,0,0,0,0,111a23,23,0,0,0,5.62,15.6q5.64,6.48,13.48,6.47a12.57,12.57,0,0,0,4-.64,8.9,8.9,0,0,0,3.39,3.83,9.51,9.51,0,0,0,10.19,0,8.86,8.86,0,0,0,3.4-3.83l.21-.42c1.56-3.11,3-5.88,4.46-8.28a30.52,30.52,0,0,1,4.66-6.15,56.65,56.65,0,0,1,7.86-6.16,48.69,48.69,0,0,1,9.76-5.31l.85-.42a75.56,75.56,0,0,0,10.51-4.78,41.79,41.79,0,0,0,9.23-7.11A29.41,29.41,0,0,1,83,109.73a148.33,148.33,0,0,1-14,18A160.06,160.06,0,0,0,53.6,147.83a34.51,34.51,0,0,0-5.2,18.57v7.65Z"/><path class="cls-1" d="M63.47,36.51A15.52,15.52,0,0,0,59,39.05a6,6,0,0,1-4,1.7q-3.82,0-3.82-3.82c0-1.13,1.09-2.54,3.29-4.24a25.07,25.07,0,0,1,8.38-4,47.2,47.2,0,0,0,.64,7.86Z"/><path class="cls-1" d="M161.74,166.41H150.28q.63-7,.64-15.49a195.35,195.35,0,0,0-4.67-43.3A155.45,155.45,0,0,0,133.3,70.89Q125,54.77,114,45.32T90.43,34.6V26.75q14.85,1,28,11.14t23,27.27a153.22,153.22,0,0,1,15.39,39.28,190.38,190.38,0,0,1,5.52,46.48c0,2.83,0,5.58-.1,8.27a72,72,0,0,1-.54,7.22Z"/><path class="cls-1" d="M23.14,106.13c0,1-.64,2.05-1.91,3.18-1.42,1-2.12,2-2.12,3.19,0,2.54-1.28,3.81-3.82,3.81s-3.83-1.27-3.83-3.81a14.1,14.1,0,0,1,2.13-7.22c1.41-2.4,3.11-3.61,5.09-3.61,3,0,4.46,1.49,4.46,4.46Z"/><path class="cls-1" d="M52,45.42c2.54,0,3.82,1.28,3.82,3.82s-1.56,4-4.67,4A5.05,5.05,0,0,1,52,56.46a6.19,6.19,0,0,1-6.37,6.37A6.26,6.26,0,0,1,42.46,62q0,4.67-4,4.66c-2.54,0-3.82-1.26-3.82-3.81,0-4.11,1.77-8,5.31-11.79s7.57-5.62,12.1-5.62Z"/><path class="cls-1" d="M31.84,124a3.56,3.56,0,0,1-3.39,2.12c-2.55,0-3.82-1.28-3.82-3.82a3.68,3.68,0,0,1,.21-1.49l.21-.42a22.64,22.64,0,0,0,1.27-3q.64-2.55,3.61-2.55,3.82,0,3.82,3.82c0,1-.63,2.76-1.91,5.31Z"/></g></g></svg>