<svg xmlns="http://www.w3.org/2000/svg" viewBox="0 0 121.4 157.92"><g id="Layer_2" data-name="Layer 2"><g id="Capa_1" data-name="Capa 1"><path d="M119.49,157.92a57.66,57.66,0,0,0,1.91-15.28,60.68,60.68,0,0,0-10.08-33.75A56.89,56.89,0,0,0,84.47,86.6,35.68,35.68,0,0,0,94.66,75.88,24.31,24.31,0,0,0,98.48,63,25.15,25.15,0,0,0,91.9,46.27a37,37,0,0,0-17.19-11,19.47,19.47,0,0,0,6.37-14.85A19.65,19.65,0,0,0,75.14,6,19.65,19.65,0,0,0,60.7,0,19.62,19.62,0,0,0,46.27,6a19.65,19.65,0,0,0-6,14.43,19.48,19.48,0,0,0,6.37,14.85,37.1,37.1,0,0,0-17.19,11A25.15,25.15,0,0,0,22.92,63,24.25,24.25,0,0,0,26.74,76,36.27,36.27,0,0,0,36.93,86.6a58.14,58.14,0,0,0-26.85,22.5A60.34,60.34,0,0,0,0,142.64a57.66,57.66,0,0,0,1.91,15.28Z"/></g></g></svg>