<svg xmlns="http://www.w3.org/2000/svg" viewBox="0 0 181.26 174.05"><defs><style>.cls-1{fill:#fff;}</style></defs><g id="Layer_2" data-name="Layer 2"><g id="Capa_1" data-name="Capa 1"><path d="M90.63,174.05a196,196,0,0,1-31-2.55,167.87,167.87,0,0,1-29.71-7.43L38,142.21l-4.45-18.46L24,110.37,14.65,47.76a6.51,6.51,0,0,1-1.91.22,12.29,12.29,0,0,1-9-3.72,12.3,12.3,0,0,1-3.71-9,12.34,12.34,0,0,1,3.71-9,12.32,12.32,0,0,1,9-3.71,12.28,12.28,0,0,1,9,3.71,12.31,12.31,0,0,1,3.72,9,12.26,12.26,0,0,1-6.58,11.25L46.7,97.85l2.75-66.64a12.54,12.54,0,0,1-8.7-3.93,12.24,12.24,0,0,1-3.61-8.81,12.27,12.27,0,0,1,3.72-9,12.8,12.8,0,0,1,18,0,12.3,12.3,0,0,1,3.71,9,12.31,12.31,0,0,1-2.33,7.32,12.13,12.13,0,0,1-5.94,4.57L75.56,86.81,88.08,25.26a13.12,13.12,0,0,1-7.32-4.56,12.25,12.25,0,0,1-2.87-8,12.27,12.27,0,0,1,3.72-9,12.8,12.8,0,0,1,18,0,12.27,12.27,0,0,1,3.72,9,12.25,12.25,0,0,1-2.87,8,13.12,13.12,0,0,1-7.32,4.56L105.7,86.81l21.22-56.45a14.54,14.54,0,0,1-5.84-4.78,11.72,11.72,0,0,1-2.43-7.11,12.3,12.3,0,0,1,3.71-9,12.8,12.8,0,0,1,18,0,12.26,12.26,0,0,1,3.71,9,12.23,12.23,0,0,1-3.6,8.81,12.54,12.54,0,0,1-8.7,3.93l2.76,66.64,27.8-51.36a12.28,12.28,0,0,1-6.58-11.25,12.74,12.74,0,1,1,25.47,0A12.68,12.68,0,0,1,168.53,48a6.41,6.41,0,0,1-1.91-.22l-9.34,62.4-9.56,13.59-4.45,18.46,8.06,21.86a167.65,167.65,0,0,1-29.71,7.43,195.78,195.78,0,0,1-31,2.55Z"/><path class="cls-1" d="M139.45,159.62l1.91-.64-2.76-7.43q-12.3-3-24.4-4.67a169.8,169.8,0,0,0-23.56-1.69,172.77,172.77,0,0,0-23.56,1.69,242,242,0,0,0-24.41,4.67L39.91,159l1.91.64a206.45,206.45,0,0,1,24.73-5,174,174,0,0,1,24.09-1.8,173.22,173.22,0,0,1,24.2,1.8,205.68,205.68,0,0,1,24.61,5Z"/><path class="cls-1" d="M135.42,142.85l1.7-7.43q-11.9-2.53-23.67-4a182.44,182.44,0,0,0-22.81-1.49,187.78,187.78,0,0,0-23,1.49q-12,1.49-23.45,4l1.7,7.43a215.72,215.72,0,0,1,22.5-3.93,180.63,180.63,0,0,1,44.57,0,215.72,215.72,0,0,1,22.5,3.93Z"/><path class="cls-1" d="M139,127.57l1.91-7.43a221,221,0,0,0-50.3-5.94A198.86,198.86,0,0,0,66,115.79q-12.73,1.59-25.68,4.35l1.91,7.42a193,193,0,0,1,23.46-4.13,207.92,207.92,0,0,1,24.94-1.59,208.17,208.17,0,0,1,24.94,1.59A191.06,191.06,0,0,1,139,127.57Z"/></g></g></svg>