<svg xmlns="http://www.w3.org/2000/svg" viewBox="0 0 139.24 161.31"><defs><style>.cls-1{fill:#fff;}</style></defs><g id="Layer_2" data-name="Layer 2"><g id="Capa_1" data-name="Capa 1"><polygon points="83.84 0 55.4 0 55.4 12.73 39.69 12.73 39.69 0 11.25 0 11.25 36.29 32.05 52.22 32.05 102.73 14.44 118.65 14.44 137.75 0 137.75 0 161.31 139.24 161.31 139.24 137.75 124.81 137.75 124.81 118.65 107.19 102.73 107.19 52.22 127.99 36.29 127.99 0 99.55 0 99.55 12.73 83.84 12.73 83.84 0"/><polygon class="cls-1" points="120.35 28.65 120.35 32.48 115.25 36.29 23.99 36.29 18.89 32.48 18.89 28.65 120.35 28.65"/><polygon class="cls-1" points="22.08 126.29 22.08 122.05 25.68 118.65 113.56 118.65 117.16 122.05 117.16 126.29 22.08 126.29"/><polygon class="cls-1" points="22.08 137.75 117.16 137.75 117.16 145.4 22.08 145.4 22.08 137.75"/><polygon class="cls-1" points="39.69 52.22 39.69 48.39 34.6 44.57 104.64 44.57 99.55 48.39 99.55 52.22 39.69 52.22"/><polygon class="cls-1" points="34.81 110.37 39.69 106.13 39.69 102.73 99.55 102.73 99.55 106.13 104.43 110.37 34.81 110.37"/></g></g></svg>