<svg xmlns="http://www.w3.org/2000/svg" viewBox="0 0 171.93 174.9"><defs><style>.cls-1{fill:#fff;}</style></defs><g id="Layer_2" data-name="Layer 2"><g id="Capa_1" data-name="Capa 1"><path d="M116.1,106.13a51.28,51.28,0,0,0,13.06-16.77,46.31,46.31,0,0,0,4.77-20.59,24.45,24.45,0,0,0-6.68-17.19Q120.56,44.37,107.19,35q-8.7-6.15-12.74-9.34a13.88,13.88,0,0,0,5.73-11.46A13.75,13.75,0,0,0,96.05,4.14a14.35,14.35,0,0,0-20.17,0,13.72,13.72,0,0,0-4.14,10.08,13.88,13.88,0,0,0,5.73,11.46Q73.65,28.88,64.74,35,51.36,44.58,44.68,51.68A24.05,24.05,0,0,0,38,68.77a46.31,46.31,0,0,0,4.77,20.59,51.25,51.25,0,0,0,13,16.77L45.21,136.05q6.59,2.13,12.84,3.61a97.77,97.77,0,0,0,12.21,2.12,26.15,26.15,0,0,1-8.92,5.52,29.79,29.79,0,0,1-10.61,1.91A112,112,0,0,1,38,148.15a114.28,114.28,0,0,0-12.73-1.06,56.56,56.56,0,0,0-11.89,1.28,97.69,97.69,0,0,0-13.37,4L9.55,174.9A60.54,60.54,0,0,1,22,171,64.52,64.52,0,0,1,35,169.59a112,112,0,0,1,12.74,1.06,111.83,111.83,0,0,0,12.74,1.06A29.19,29.19,0,0,0,86,156.85a29.17,29.17,0,0,0,10.83,10.94,28.81,28.81,0,0,0,14.64,3.92,112,112,0,0,0,12.74-1.06,111.83,111.83,0,0,1,12.74-1.06A65.93,65.93,0,0,1,150.06,171a55.79,55.79,0,0,1,12.32,3.93l9.55-22.51a61.42,61.42,0,0,0-25.26-5.3,114.41,114.41,0,0,0-12.74,1.06,111.87,111.87,0,0,1-12.73,1.06,30.14,30.14,0,0,1-10.51-1.91,25.93,25.93,0,0,1-9-5.52,92.16,92.16,0,0,0,12.42-2.23q6.47-1.59,12.63-3.71L116.1,106.13Z"/><path class="cls-1" d="M86,20.8a6.52,6.52,0,0,1-6.58-6.58A6.52,6.52,0,0,1,86,7.64a6.16,6.16,0,0,1,4.67,2,6.42,6.42,0,0,1,1.91,4.56A6.52,6.52,0,0,1,86,20.8Z"/><path class="cls-1" d="M86.86,136.24c-8.78,0-22.09-2.63-31.49-5l7.25-21.46h0a129,129,0,0,1,46.69,0l8.17,21.9S95.58,136.24,86.86,136.24Z"/><path class="cls-1" d="M75.57,157.81a20.8,20.8,0,0,1-15.07,6.26q-3.41,0-12.74-1.06T35,162a72.74,72.74,0,0,0-10.72.84,74.72,74.72,0,0,0-10.5,2.34l-3.61-8.27h0a48.92,48.92,0,0,1,15.07-2.13q3,0,12.74,1.06t12.73,1.07A36.22,36.22,0,0,0,67,153.14a36.84,36.84,0,0,0,12.84-10.51l6.61-7.71,5.7,7.72A38.91,38.91,0,0,0,105,153a35.46,35.46,0,0,0,16.24,3.82q3,0,12.73-1.07t12.74-1.06a48.92,48.92,0,0,1,15.07,2.13l-3.61,8.27h0A77.45,77.45,0,0,0,136.9,162q-3.39,0-12.73,1.06t-12.74,1.06a20.8,20.8,0,0,1-15.07-6.26l-10.59-8.45Z"/><path class="cls-1" d="M86,28.45a216.51,216.51,0,0,0,17.62,13.36q11.67,8.28,17.19,13.91a18.07,18.07,0,0,1,5.52,13,39.76,39.76,0,0,1-4.67,18.68,39.29,39.29,0,0,1-12.73,14.43A127.67,127.67,0,0,0,86,100,129.9,129.9,0,0,0,63,101.88,39.31,39.31,0,0,1,50.3,87.45a39.76,39.76,0,0,1-4.67-18.68,18.09,18.09,0,0,1,5.52-13q5.52-5.62,17.19-13.91A171.63,171.63,0,0,0,86,28.45Z"/><path d="M80.86,64.47H69.4c-2.54,0-3.82,1.28-3.82,3.83s1.28,3.82,3.82,3.82H80.86V83.57c0,2.55,1.28,3.83,3.82,3.83s3.82-1.28,3.82-3.83V72.12H100c2.55,0,3.82-1.28,3.82-3.82s-1.27-3.83-3.82-3.83H88.5V53c0-2.54-1.27-3.82-3.82-3.82S80.86,50.47,80.86,53V64.47Z"/></g></g></svg>