<svg xmlns="http://www.w3.org/2000/svg" viewBox="0 0 167.68 169.23"><defs><style>.cls-1{fill:#fff;}</style></defs><g id="Layer_2" data-name="Layer 2"><g id="Capa_1" data-name="Capa 1"><path d="M140.72,120.42q.65-2.34,7.64-8.7a96.35,96.35,0,0,0,14.12-15,26.77,26.77,0,0,0,5.2-16.23,33.84,33.84,0,0,0-2.76-13.59,35.45,35.45,0,0,0-18.68-18.68,33.75,33.75,0,0,0-13.58-2.76,45.85,45.85,0,0,0-15.92,3,51.14,51.14,0,0,0-14.22,7.86,30.36,30.36,0,0,0,.85-3.51,20,20,0,0,0,.42-3.5,19,19,0,0,0-4.56-12.63,20.24,20.24,0,0,0-11.57-6.9V20h8.49Q100,20,100,16.13T96.15,12.3H87.66V3.82Q87.66,0,83.84,0T80,3.82v8.49H71.53c-2.55,0-3.82,1.28-3.82,3.82S69,20,71.53,20H80v9.84a20.22,20.22,0,0,0-11.57,6.89,19,19,0,0,0-4.56,12.63,20.25,20.25,0,0,0,.42,3.51,30.64,30.64,0,0,0,.85,3.5,47.8,47.8,0,0,0-14.11-7.85,46.53,46.53,0,0,0-16-3,33.12,33.12,0,0,0-13.37,2.77A36.54,36.54,0,0,0,10.4,55.79,34.45,34.45,0,0,0,2.76,67,34,34,0,0,0,0,80.52,26.47,26.47,0,0,0,5.3,96.75a106.35,106.35,0,0,0,14,15q7,6.36,7.64,8.7l4.24,17-8.06,21.86a168.52,168.52,0,0,0,29.71,7.43,195.74,195.74,0,0,0,31,2.54,195.74,195.74,0,0,0,31-2.54,168.74,168.74,0,0,0,29.71-7.43l-8.06-21.86,4.24-17Z"/><path class="cls-1" d="M83.84,83.28a97.58,97.58,0,0,0-5.1-11.47q-3.6-7.64-5.41-12.52a28.61,28.61,0,0,1-1.8-10,12.3,12.3,0,0,1,21-8.7,11.84,11.84,0,0,1,3.61,8.7,30.38,30.38,0,0,1-1.8,10.19,112.75,112.75,0,0,1-5.42,12.31,98.84,98.84,0,0,0-5.09,11.47Z"/><path class="cls-1" d="M35,154.8a206.46,206.46,0,0,1,24.73-5A172.58,172.58,0,0,1,83.84,148a171.78,171.78,0,0,1,24.2,1.81,207.83,207.83,0,0,1,24.62,5,206.25,206.25,0,0,1-24.62,5,173.22,173.22,0,0,1-24.2,1.8,174,174,0,0,1-24.09-1.8,204.51,204.51,0,0,1-24.73-5Z"/><path class="cls-1" d="M39.05,138.46l-3.52-12.32s22.66-3.36,27.81-4a190.21,190.21,0,0,1,44.57,0c5.07.58,23,4,23,4l-2.26,12.32,3.19,8.28q-12.32-2.84-24.41-4.45a177.54,177.54,0,0,0-23.56-1.62,180.79,180.79,0,0,0-23.56,1.62Q48,143.91,35.87,146.74l3.18-8.28Z"/><path class="cls-1" d="M83,113.72c0-7.07,5.85-22,8.18-28.32a54.64,54.64,0,0,1,9.77-16.88,45.18,45.18,0,0,1,14.43-11.35,38.57,38.57,0,0,1,17.3-4A27.55,27.55,0,0,1,160,80.52a21,21,0,0,1-4.46,13,118.55,118.55,0,0,1-14.21,15.56c-2.82,2.55-7.61,9.22-8.74,10.5a215.78,215.78,0,0,0-23.18-3.94,225,225,0,0,0-24.94-1.91Z"/><path class="cls-1" d="M83.71,113.72c0-7.07-5.84-22-8.18-28.32a54.62,54.62,0,0,0-9.76-16.88A45.39,45.39,0,0,0,51.34,57.17a38.6,38.6,0,0,0-17.3-4A26.36,26.36,0,0,0,14.72,61.2,26.39,26.39,0,0,0,6.66,80.52a21,21,0,0,0,4.45,13,119.26,119.26,0,0,0,14.21,15.56c2.83,2.55,7.62,9.22,8.75,10.5a215.78,215.78,0,0,1,23.18-3.94,224.87,224.87,0,0,1,24.94-1.91Z"/></g></g></svg>