<svg xmlns="http://www.w3.org/2000/svg" viewBox="0 0 173.84 174.05"><defs><style>.cls-1{fill:#1a171a;}.cls-2{fill:#fff;}</style></defs><g id="Layer_2" data-name="Layer 2"><g id="Capa_1" data-name="Capa 1"><path class="cls-1" d="M48.4,174.05H172.56q1.27-14.43,1.28-23.14a190,190,0,0,0-6.48-50,149.07,149.07,0,0,0-18.25-42.14q-11.78-18.24-27.17-28.65a61.76,61.76,0,0,0-32.79-11A34.42,34.42,0,0,0,83.84,8a30.23,30.23,0,0,0-8.27-8,32.65,32.65,0,0,0-7.65,9.13A35.19,35.19,0,0,0,63.68,21,63.45,63.45,0,0,0,49.25,7.21Q41.39,1.92,34.39,1.06a33.49,33.49,0,0,0-.22,4.67A76.07,76.07,0,0,0,38,30.35q-1.28,1.27-3.5,3.82a68.55,68.55,0,0,0-4.78,6.26,44.1,44.1,0,0,0-4.25,7.75,19.78,19.78,0,0,0-1.7,7.64A23,23,0,0,1,21,65.69q-2.75,5.63-8.27,15.39Q6.37,91.91,3.19,98.7A29.32,29.32,0,0,0,0,111a23,23,0,0,0,5.62,15.61q5.64,6.46,13.48,6.47a12.57,12.57,0,0,0,4-.64,8.82,8.82,0,0,0,3.39,3.82,9.46,9.46,0,0,0,10.19,0,8.78,8.78,0,0,0,3.4-3.82l.21-.42q2.34-4.67,4.46-8.28a30.8,30.8,0,0,1,4.66-6.15,56.65,56.65,0,0,1,7.86-6.16,48.1,48.1,0,0,1,9.76-5.3l.85-.43a76.74,76.74,0,0,0,10.51-4.78,41.79,41.79,0,0,0,9.23-7.11A29.41,29.41,0,0,1,83,109.73a147.58,147.58,0,0,1-14,18A161.53,161.53,0,0,0,53.6,147.83a34.51,34.51,0,0,0-5.2,18.57v7.65Z"/><path class="cls-2" d="M76.14,9.4c0-3.39,11.73,17.69,11.59,16.84a60.8,60.8,0,0,1,30.71,11.65q13.17,10.08,23,27.27a153,153,0,0,1,15.39,39.27,191,191,0,0,1,5.52,46.48q0,4.25-.1,8.28a69.18,69.18,0,0,1-.54,7.22H56a28.39,28.39,0,0,1,4.88-15.61,153.14,153.14,0,0,1,14.44-18.14,165.08,165.08,0,0,0,15.17-19.21,29.83,29.83,0,0,0,5-16.45A26.87,26.87,0,0,0,93.4,86.6a36.51,36.51,0,0,0,3.61-10A48.86,48.86,0,0,0,98.49,65.8q0-3.82-3.82-3.82T90.85,65.8a39.79,39.79,0,0,1-2,11.78,26.11,26.11,0,0,1-6.47,10.93q-6.8,6.8-18.25,10.61a58.55,58.55,0,0,0-11.78,6.58,69.85,69.85,0,0,0-8.18,6.58,36.7,36.7,0,0,0-5.62,7.11q-2.23,3.72-4.56,8.39a5.41,5.41,0,0,1-.64,1.27,1.89,1.89,0,0,1-3.4,0l-.63-1.27A20.84,20.84,0,0,0,32.37,123a11.3,11.3,0,0,0,1.38-4.35q0-3.83-3.82-3.82-3,0-3.6,2.55-1.92,8.06-7.22,8.06-4.66,0-8.07-4.24A15.84,15.84,0,0,1,7.64,111a22.92,22.92,0,0,1,2.77-9.87q2.75-5.62,8.27-15,6.38-10.82,9.55-17.72a30.37,30.37,0,0,0,3.19-12.63,12.93,12.93,0,0,1,1.16-4.88,36.61,36.61,0,0,1,2.87-5.41c1.13-1.77,2.23-3.32,3.29-4.67s5.12-5.74,5.69-6.31L40.71,9.4C42,7.85,60.66,28.34,62.36,27.78l3.94,2.84,2.19-4.38Z"/><path class="cls-1" d="M23.14,106.13q0-4.45-4.46-4.46-3,0-5.09,3.61a14.07,14.07,0,0,0-2.13,7.21q0,3.83,3.83,3.83c2.54,0,3.82-1.28,3.82-3.83,0-1.13.7-2.19,2.12-3.18,1.27-1.13,1.91-2.19,1.91-3.18Z"/><path d="M39.36,64.06c0-3.66.06-6.1.19-7.3a22.3,22.3,0,0,1,1.51-5.22,24.05,24.05,0,0,1,1.33-4,9.74,9.74,0,0,1,2.94-2.84Q47.7,43,52.25,43,57,43,57,46.43a3.77,3.77,0,0,1-1.51,2.84Q54,50.6,51.87,52.12q-1.89,2.27-3,3.5a11.77,11.77,0,0,0-2,3.13,9.66,9.66,0,0,1-3.13,3.61,26.91,26.91,0,0,1-3,2.08C40.18,64.32,39.74,64.19,39.36,64.06Z"/></g></g></svg>