<svg xmlns="http://www.w3.org/2000/svg" viewBox="0 0 121.4 157.92"><defs><style>.cls-1{fill:#fff;}</style></defs><g id="Layer_2" data-name="Layer 2"><g id="Capa_1" data-name="Capa 1"><path d="M119.49,157.92a57.71,57.71,0,0,0,1.91-15.28,60.68,60.68,0,0,0-10.08-33.75A56.89,56.89,0,0,0,84.47,86.6,35.68,35.68,0,0,0,94.66,75.88,24.31,24.31,0,0,0,98.48,63,25.13,25.13,0,0,0,91.9,46.27a37,37,0,0,0-17.19-11,19.48,19.48,0,0,0,6.37-14.85A19.67,19.67,0,0,0,75.14,5.94,19.68,19.68,0,0,0,60.7,0,19.65,19.65,0,0,0,46.27,5.94a19.68,19.68,0,0,0-6,14.44,19.48,19.48,0,0,0,6.37,14.85,37.1,37.1,0,0,0-17.19,11A25.13,25.13,0,0,0,22.92,63,24.25,24.25,0,0,0,26.74,76,36.27,36.27,0,0,0,36.93,86.6a58.14,58.14,0,0,0-26.85,22.5A60.34,60.34,0,0,0,0,142.64a57.71,57.71,0,0,0,1.91,15.28Z"/><path class="cls-1" d="M8.27,150.28a40.06,40.06,0,0,1-.63-7.65A53.65,53.65,0,0,1,40.11,93.39a7.24,7.24,0,0,0,4.46-7A7.33,7.33,0,0,0,41.17,80q-10.6-6.58-10.61-17a18.12,18.12,0,0,1,5.09-12.42A29.15,29.15,0,0,1,49,42.45a7,7,0,0,0,5.3-7.22A7.58,7.58,0,0,0,52,29.71a11.93,11.93,0,0,1-4-9.34,12.25,12.25,0,0,1,3.72-9,12.27,12.27,0,0,1,9-3.72,12.41,12.41,0,0,1,8.92,3.72,12.12,12.12,0,0,1,3.82,9,11.93,11.93,0,0,1-4,9.34,7.58,7.58,0,0,0-2.33,5.52,7,7,0,0,0,5.31,7.22,28.39,28.39,0,0,1,13.26,8.17,18.33,18.33,0,0,1,5,12.42q0,10.4-10.4,17a7.33,7.33,0,0,0-3.4,6.37,7.23,7.23,0,0,0,4.46,7A50.91,50.91,0,0,1,105,113.13a53.17,53.17,0,0,1,8.8,29.5,39.26,39.26,0,0,1-.64,7.65Z"/></g></g></svg>