<svg xmlns="http://www.w3.org/2000/svg" viewBox="0 0 181.27 174.05"><defs><style>.cls-1{fill:#fff;}</style></defs><g id="Layer_2" data-name="Layer 2"><g id="Capa_1" data-name="Capa 1"><path d="M131.81,31.2a12.44,12.44,0,0,0,8.7-3.93,12.18,12.18,0,0,0,3.61-8.81,12.32,12.32,0,0,0-3.71-9,12.82,12.82,0,0,0-18,0,12.29,12.29,0,0,0-3.72,9A12.44,12.44,0,0,0,121,25.79a12.15,12.15,0,0,0,6,4.56L105.7,86.81,93.18,25.26a13.13,13.13,0,0,0,7.32-4.57,12.17,12.17,0,0,0,2.87-8,12.29,12.29,0,0,0-3.72-9,12.82,12.82,0,0,0-18,0,12.32,12.32,0,0,0-3.71,9,12.17,12.17,0,0,0,2.87,8,13.1,13.1,0,0,0,7.32,4.57L75.56,86.81,54.34,30.35a13.54,13.54,0,0,0,5.95-4.78,12.07,12.07,0,0,0,2.33-7.11,12.29,12.29,0,0,0-3.72-9,12.82,12.82,0,0,0-18,0,12.28,12.28,0,0,0-3.71,9,12.18,12.18,0,0,0,3.61,8.81,12.42,12.42,0,0,0,8.7,3.93L46.7,97.85,18.89,46.48a12.25,12.25,0,0,0,6.58-11.25,12.27,12.27,0,0,0-3.72-9,12.28,12.28,0,0,0-9-3.71,12.32,12.32,0,0,0-9,3.71,12.3,12.3,0,0,0-3.71,9,12.29,12.29,0,0,0,3.71,9,12.29,12.29,0,0,0,9,3.72,6.45,6.45,0,0,0,1.9-.21L24,110.16l9.55,13.58L38,142.21l-8.07,21.86a168.63,168.63,0,0,0,29.72,7.43,195.75,195.75,0,0,0,31,2.55,195.78,195.78,0,0,0,31-2.55,168.63,168.63,0,0,0,29.72-7.43l-8.07-21.86,4.46-18.47,9.55-13.37,9.34-62.61a6.52,6.52,0,0,0,1.91.21,12.7,12.7,0,0,0,12.74-12.74,12.74,12.74,0,1,0-25.47,0,12.26,12.26,0,0,0,6.57,11.25l-27.8,51.37L131.81,31.2Z"/><path class="cls-1" d="M90.63,7.64a5.09,5.09,0,0,1,5.1,5.1,5.09,5.09,0,0,1-5.1,5.09A4.88,4.88,0,0,1,87,16.34a4.91,4.91,0,0,1-1.49-3.6A4.91,4.91,0,0,1,87,9.13a4.88,4.88,0,0,1,3.6-1.49Z"/><path class="cls-1" d="M49.88,13.37A5.09,5.09,0,0,1,55,18.46a5.1,5.1,0,1,1-8.71-3.6,4.93,4.93,0,0,1,3.61-1.49Z"/><path class="cls-1" d="M131.39,13.37a5.07,5.07,0,0,1,5.09,5.09,5.1,5.1,0,1,1-8.7-3.6,4.91,4.91,0,0,1,3.61-1.49Z"/><path class="cls-1" d="M12.74,30.14a5.07,5.07,0,0,1,5.09,5.09,5.1,5.1,0,0,1-1.38,3.61,4.83,4.83,0,0,1-3.71,1.49,5.1,5.1,0,0,1-3.61-8.7,4.88,4.88,0,0,1,3.61-1.49Z"/><path class="cls-1" d="M168.53,30.14a5.07,5.07,0,0,1,5.09,5.09,5.1,5.1,0,0,1-1.38,3.61,4.83,4.83,0,0,1-3.71,1.49,5.11,5.11,0,0,1-3.61-8.7,4.88,4.88,0,0,1,3.61-1.49Z"/><path class="cls-1" d="M53.84,104.32,56,56.67,70.46,94.48l11.15.22,9-42.87,9,41.55,11.15,1.75L125.14,57.3l2,45.92,11.59,3.07,15.83-29.24-4.23,29.67-10.06,16.84.65.48a220.89,220.89,0,0,0-50.3-5.94A198.82,198.82,0,0,0,66,119.69c-8.49,1.06-16.17,1.82-24.8,3.65l-9.85-15.09-4.57-31.2,16.82,29.24"/><path class="cls-1" d="M41.81,159.61a206.85,206.85,0,0,1,24.73-5,172.58,172.58,0,0,1,24.09-1.81,171.67,171.67,0,0,1,24.2,1.81,207.42,207.42,0,0,1,24.62,5,205.45,205.45,0,0,1-24.62,5,173.11,173.11,0,0,1-24.2,1.8,174,174,0,0,1-24.09-1.8,204.9,204.9,0,0,1-24.73-5Z"/><path class="cls-1" d="M46.43,143.27,42.9,131s16.41-3.89,27.82-4a190.21,190.21,0,0,1,44.57,0c5.06.58,23,4,23,4L136,143.27l3.19,8.28q-12.32-2.84-24.41-4.45a177.54,177.54,0,0,0-23.56-1.62,180.79,180.79,0,0,0-23.56,1.62q-12.31,1.62-24.41,4.45l3.18-8.28Z"/></g></g></svg>