<svg xmlns="http://www.w3.org/2000/svg" viewBox="0 0 139.24 161.31"><defs><style>.cls-1{fill:#fff;}</style></defs><g id="Layer_2" data-name="Layer 2"><g id="Capa_1" data-name="Capa 1"><polygon points="83.84 0 55.4 0 55.4 12.74 39.69 12.74 39.69 0 11.25 0 11.25 36.3 32.05 52.22 32.05 102.73 14.44 118.65 14.44 137.75 0 137.75 0 161.31 139.24 161.31 139.24 137.75 124.81 137.75 124.81 118.65 107.19 102.73 107.19 52.22 127.99 36.3 127.99 0 99.55 0 99.55 12.74 83.84 12.74 83.84 0"/><polygon class="cls-1" points="18.89 31.47 18.89 7.64 32.05 7.64 32.05 20.38 63.04 20.38 63.04 7.64 76.2 7.64 76.2 20.38 107.19 20.38 107.19 7.64 120.35 7.64 120.35 31.47 102.22 45.47 37.93 45.47 18.89 31.47"/><polygon class="cls-1" points="7.64 145.4 21.96 145.4 21.96 126.03 116.61 126.03 116.66 145.4 131.6 145.4 131.6 153.67 7.64 153.67 7.64 145.4"/><polygon class="cls-1" points="39.69 52.22 99.55 52.22 99.55 102.73 115.35 118.73 23.93 118.73 39.69 102.73 39.69 52.22"/></g></g></svg>