<svg width="24" height="24" viewBox="0 0 24 24" fill="none" xmlns="http://www.w3.org/2000/svg">
<path fill-rule="evenodd" clip-rule="evenodd" d="M14.3704 9.22232C15.3588 8.49404 16 7.3219 16 6C16 3.79086 14.2091 2 12 2C9.79086 2 8 3.79086 8 6C8 7.3219 8.64123 8.49404 9.62961 9.22232L9 13C9 13 8.5 16 8 17C7.82635 17.3473 7.53209 17.6946 7.22193 18H7C5.89543 18 5 18.8954 5 20V22H19V20C19 18.8954 18.1046 18 17 18H16.7781C16.4679 17.6946 16.1736 17.3473 16 17C15.5 16 15 13 15 13L14.3704 9.22232Z" fill="#5B6785" fill-opacity="0.5"/>
</svg>
